HIERARCHY
ROOT Hips
{
	OFFSET 0.000000 0.000000 0.000000 
	CHANNELS 6 Xposition Yposition Zposition Yrotation Zrotation Xrotation 
	JOINT Lumbar
	{
		OFFSET 0.000000 0.000000 0.000000 
		CHANNELS 3 Zrotation Xrotation Yrotation
		JOINT Neck
		{
			OFFSET 0.000000 0.445665 0.000000 
			CHANNELS 3 Zrotation Xrotation Yrotation
			End Site
			{
				OFFSET 0.000000 0.227535 0.000000 
			}
		}
		JOINT RightShoulder
		{
			OFFSET 0.019635 0.377685 0.194865 
			CHANNELS 3 Zrotation Xrotation Yrotation
			JOINT RightElbow
			{
				OFFSET 0.000000 -0.243375 0.000000 
				CHANNELS 2 Zrotation Yrotation
				JOINT RightWrist
				{
					OFFSET 0.000000 -0.264825 0.000000 
					CHANNELS 2 Zrotation Xrotation
					End Site
					{
						OFFSET 0.006600 -0.176220 0.000990 
					}
				}
			}
		}
		JOINT LeftShoulder
		{
			OFFSET 0.019635 0.377685 -0.194865 
			CHANNELS 3 Zrotation Xrotation Yrotation
			JOINT LeftElbow
			{
				OFFSET 0.000000 -0.243375 0.000000 
				CHANNELS 2 Zrotation Yrotation
				JOINT LeftWrist
				{
					OFFSET 0.000000 -0.264825 0.000000 
					CHANNELS 2 Zrotation Xrotation
					End Site
					{
						OFFSET 0.006600 -0.176220 -0.000990 
					}
				}
			}
		}
	}
	JOINT RightHip
	{
		OFFSET 0.052140 -0.069960 0.075570 
		CHANNELS 3 Zrotation Xrotation Yrotation
		JOINT RightKnee
		{
			OFFSET 0.000000 -0.402270 0.000000 
			CHANNELS 1 Zrotation
			JOINT RightAnkle
			{
				OFFSET 0.000000 -0.404085 0.000000 
				CHANNELS 3 Zrotation Xrotation Yrotation
				End Site
				{
					OFFSET 0.204105 -0.089430 0.008415 
				}
			}
		}
	}
	JOINT LeftHip
	{
		OFFSET 0.052140 -0.069960 -0.075570 
		CHANNELS 3 Zrotation Xrotation Yrotation
		JOINT LeftKnee
		{
			OFFSET 0.000000 -0.402270 0.000000 
			CHANNELS 1 Zrotation
			JOINT LeftAnkle
			{
				OFFSET 0.000000 -0.404085 0.000000 
				CHANNELS 3 Zrotation Xrotation Yrotation
				End Site
				{
					OFFSET 0.204105 -0.089430 -0.008415 
				}
			}
		}
	}
}
MOTION
Frames: 17
Frame Time: 0.02
-0.6377 0.96155 -0.00403 178.90693 0 -4.20676 7.39251 3.16051 -1.06896 -30.17146 -1.76528 -0.23551 130.25133 -54.98211 41.19538 37.52385 137.92313 -33.42594 -12.99301 35.86613 101.91588 35.87735 50.74438 -104.51635 -48.43439 5.26331 3.82949 -0.3484 -1.5354 -13.60002 -14.46282 -1.15922 -11.99189 -6.38122 2.15531 11.29012 -2.44161 -6.66131 2.13017 6.2263
-0.63682 0.96153 -0.00664 177.13505 0 -4.32826 7.21038 3.23041 -1.08853 -29.99862 -1.62116 -0.06771 130.27197 -54.78318 41.62107 37.65037 137.97856 -33.45219 -13.00357 35.52191 101.40092 35.95747 50.74549 -104.44205 -48.39753 5.25238 4.10985 -0.17944 -2.82331 -13.616 -13.91459 -1.24522 -12.00777 -6.57179 2.20649 12.40954 -2.38428 -6.59886 2.17273 6.74627
-0.63605 0.96163 -0.00955 175.37836 0 -4.47413 7.0176 3.31523 -1.11353 -29.8588 -1.45936 0.13456 130.38429 -54.67586 42.12451 37.91803 138.03331 -33.45163 -13.01913 35.35779 100.83959 35.9016 50.85502 -104.35301 -48.40841 5.23607 4.45143 -0.01419 -4.62642 -13.86583 -13.28052 -1.33475 -12.11853 -6.72881 2.29212 13.42632 -2.40141 -6.53677 2.22386 7.373
-0.63525 0.96166 -0.01236 173.63068 0 -4.60654 6.83025 3.38958 -1.14542 -29.72005 -1.30429 0.31785 130.47878 -54.54227 42.59582 38.147 138.09783 -33.49622 -13.03137 35.18389 100.3014 35.86056 50.94798 -104.28547 -48.41067 5.22373 4.76148 0.15092 -6.20226 -14.01359 -12.72008 -1.41689 -12.1902 -6.90066 2.36372 14.49445 -2.38717 -6.47256 2.26989 7.93168
-0.63435 0.96173 -0.01501 171.81083 0 -4.74924 6.64004 3.4805 -1.137 -29.52334 -1.15132 0.51872 130.49073 -54.33511 43.06501 38.27776 138.13317 -33.41489 -13.04942 34.74226 99.7446 35.99722 50.91556 -104.16025 -48.3591 5.2055 5.08682 0.32253 -7.76683 -14.14205 -12.01364 -1.52349 -12.24498 -7.07479 2.42739 15.54995 -2.36174 -6.41499 2.32094 8.57001
-0.6337 0.96176 -0.01809 170.14777 0 -4.87604 6.45429 3.53969 -1.21326 -29.44778 -0.99145 0.68854 130.68645 -54.30531 43.54612 38.63325 138.21855 -33.57153 -13.05589 34.86278 99.22361 35.75606 51.15643 -104.1439 -48.4281 5.19749 5.39342 0.48136 -9.45986 -14.36373 -11.58895 -1.58042 -12.3557 -7.23589 2.5166 16.6026 -2.37843 -6.3449 2.36366 9.07008
-0.6337 0.96159 -0.0222 168.9025 0 -4.95511 6.27254 3.51219 -1.53344 -29.74368 -0.81189 0.77972 131.40417 -54.75473 44.12494 39.69818 138.52471 -34.55511 -13.03087 36.79723 98.75781 34.29407 52.23468 -104.50657 -48.84806 5.22611 5.65226 0.59139 -11.51386 -14.82393 -11.98697 -1.49378 -12.61903 -7.37089 2.6629 17.69721 -2.48254 -6.23285 2.38045 9.14689
-0.63396 0.96138 -0.02676 167.81726 0 -5.01704 6.09772 3.45143 -1.93719 -30.15144 -0.62691 0.83551 132.29488 -55.37843 44.69883 40.9632 138.86734 -35.75213 -12.99362 39.23721 98.33889 32.4928 53.56435 -104.96681 -49.38264 5.26399 5.88666 0.69141 -13.65507 -15.36337 -12.66737 -1.35803 -12.9316 -7.49381 2.83489 18.78718 -2.62818 -6.10985 2.38866 9.0837
-0.63413 0.9612 -0.03118 166.66674 0 -5.08526 5.92659 3.40261 -2.29498 -30.47722 -0.44868 0.89673 133.07973 -55.91621 45.21695 42.05405 139.13628 -36.74039 -12.96056 41.23853 97.93753 30.98953 54.70571 -105.3321 -49.84513 5.29284 6.1204 0.80536 -15.66725 -15.84224 -13.20322 -1.2483 -13.208 -7.6208 2.9983 19.8624 -2.7621 -5.99657 2.40144 9.09519
-0.63418 0.96097 -0.03531 165.48502 0 -5.16019 5.72563 3.36711 -2.68502 -30.93442 -0.25351 1.0032 133.98215 -56.48624 45.97468 43.49493 139.63839 -38.18597 -12.93311 44.11054 97.37754 28.88798 56.15977 -105.90564 -50.39257 5.34138 6.40688 0.87932 -18.06996 -16.43319 -13.80446 -1.12293 -13.54623 -7.75165 3.14923 21.00537 -2.86947 -5.86256 2.41197 9.06472
-0.63455 0.96084 -0.04016 164.4064 0 -5.21736 5.5893 3.29656 -3.02968 -31.14567 -0.09028 1.00777 134.68068 -57.02823 46.24128 44.26032 139.67356 -38.74708 -12.89143 45.30902 97.15071 27.93667 57.02551 -106.07492 -50.79108 5.35178 6.5757 1.03458 -19.67948 -16.80604 -14.33774 -1.01862 -13.76572 -7.87324 3.33255 22.00738 -3.03973 -5.77001 2.42468 9.08575
-0.63573 0.96095 -0.04679 163.57016 0 -5.22422 5.62349 3.13031 -3.21099 -30.63634 -0.03704 0.72931 134.76339 -57.45941 45.06474 43.04223 138.32396 -36.66568 -12.81013 41.57329 97.91046 30.38967 56.16455 -105.05299 -50.7375 5.24969 6.43596 1.41383 -19.01919 -16.56036 -14.61394 -0.98271 -13.64844 -7.9613 3.59259 22.62127 -3.38563 -5.78677 2.44844 9.29442
-0.63724 0.96115 -0.05413 162.8321 0 -5.21459 5.72358 2.93113 -3.34681 -29.87863 -0.01268 0.35165 134.6369 -57.854 43.40987 41.14939 136.51953 -33.71343 -12.71575 36.17345 98.98961 33.98344 54.71032 -103.63157 -50.53186 5.10997 6.17666 1.87573 -17.56506 -16.09098 -14.81224 -0.96997 -13.40887 -8.0423 3.88536 23.09362 -3.7917 -5.84684 2.47414 9.55768
-0.63862 0.96132 -0.0612 162.05189 0 -5.21612 5.79779 2.75161 -3.51525 -29.24292 0.03853 0.02551 134.61192 -58.25911 42.03184 39.61053 134.97972 -31.25854 -12.62917 31.65476 99.8715 36.96323 53.5532 -102.42523 -50.4045 4.99061 5.9647 2.30182 -16.51099 -15.72044 -15.04718 -0.94782 -13.22279 -8.13426 4.16722 23.63174 -4.16067 -5.89258 2.49691 9.78745
-0.63991 0.96146 -0.0681 161.26931 0 -5.20203 5.85552 2.55124 -3.63701 -28.57031 0.03302 -0.3306 134.56376 -58.69698 40.40399 37.88003 133.19574 -28.38689 -12.53334 26.61375 100.97474 40.3433 52.28698 -101.07622 -50.24406 4.85733 5.7805 2.72044 -15.29784 -15.36358 -15.28775 -0.91937 -13.04742 -8.19446 4.43333 24.16493 -4.56841 -5.91643 2.5278 10.0469
-0.64146 0.96168 -0.07549 160.5098 0 -5.21619 5.96255 2.38673 -3.84307 -27.91702 0.13745 -0.64539 134.51459 -59.05459 39.18127 36.3844 131.81298 -26.16775 -12.45509 22.27496 101.69248 43.15393 51.1062 -99.93389 -50.11288 4.74458 5.51162 3.17403 -14.222 -14.92548 -15.4931 -0.91003 -12.81987 -8.31756 4.73961 24.67307 -4.91406 -5.99493 2.54264 10.26197
-0.64376 0.96213 -0.08406 159.8158 0 -5.31716 6.19473 2.33073 -4.30182 -27.35298 0.56347 -0.83816 134.49136 -59.20677 39.20852 35.71337 131.6382 -26.01357 -12.41755 20.14233 101.26367 44.21223 50.28494 -99.41195 -50.11586 4.69262 5.0275 3.70689 -13.75501 -14.30456 -15.63033 -0.94948 -12.47932 -8.62999 5.14934 25.16089 -5.03303 -6.22614 2.51007 10.31863
